<svg xmlns="http://www.w3.org/2000/svg" width="1600" height="900" viewBox="0 0 1600 900">
  <defs>
    <linearGradient id="bg" x1="0" y1="0" x2="1" y2="1">
      <stop stop-color="#050912"/>
      <stop offset=".52" stop-color="#0A1724"/>
      <stop offset="1" stop-color="#07121D"/>
    </linearGradient>
    <linearGradient id="signal" x1="180" y1="725" x2="1410" y2="160" gradientUnits="userSpaceOnUse">
      <stop stop-color="#3EFFB2"/>
      <stop offset=".5" stop-color="#62E8FF"/>
      <stop offset="1" stop-color="#FFFFFF"/>
    </linearGradient>
  </defs>
  <rect width="1600" height="900" fill="url(#bg)"/>
  <g fill="none" stroke="#62E8FF" stroke-width="1" opacity=".24">
    <path d="M160 120h1280M160 260h1280M160 400h1280M160 540h1280M160 680h1280"/>
    <path d="M270 60v760M470 60v760M670 60v760M870 60v760M1070 60v760M1270 60v760"/>
  </g>
  <g fill="none" stroke="url(#signal)" stroke-width="6" stroke-linecap="round">
    <path d="M194 680C370 596 432 388 618 380s246 232 438 154 226-284 374-338"/>
    <path d="M260 522c158-60 270-54 392 18s250 74 420-16 252-98 368-64" opacity=".65"/>
  </g>
  <g fill="#050912" stroke="#3EFFB2" stroke-width="5">
    <circle cx="194" cy="680" r="20"/>
    <circle cx="618" cy="380" r="24"/>
    <circle cx="1056" cy="534" r="20"/>
    <circle cx="1430" cy="196" r="24"/>
  </g>
  <g fill="#62E8FF">
    <rect x="346" y="590" width="48" height="96" rx="5"/>
    <rect x="404" y="530" width="48" height="156" rx="5"/>
    <rect x="1190" y="404" width="48" height="116" rx="5"/>
    <rect x="1248" y="336" width="48" height="184" rx="5"/>
  </g>
</svg>
